<?xml version="1.0" encoding="utf-8"?>
<!-- Generator: Adobe Illustrator 15.0.0, SVG Export Plug-In  -->
<!DOCTYPE svg PUBLIC "-//W3C//DTD SVG 1.1//EN" "http://www.w3.org/Graphics/SVG/1.1/DTD/svg11.dtd" [
	<!ENTITY ns_flows "http://ns.adobe.com/Flows/1.0/">
]>
<svg version="1.1"
	 xmlns="http://www.w3.org/2000/svg" xmlns:xlink="http://www.w3.org/1999/xlink" xmlns:a="http://ns.adobe.com/AdobeSVGViewerExtensions/3.0/"
	 x="0px" y="0px" width="62px" height="72px" viewBox="3.753 0 62 72" enable-background="new 3.753 0 62 72" xml:space="preserve">
<defs>
</defs>
<path fill="none" stroke="#FFFFFF" stroke-width="2" stroke-linecap="round" d="M34.253,11.732l7.372-7.629l8.959-1.142
	L39.802,12.74l15.13-5.325l0.637,4.532l-19.06,6.604l1.041,2.39l25.502-6.037l-0.166,4.829L38.02,24.294l1.436,6.46l25.666-5.237
	l-2.333,5.333l-12,3.5l-14.078,4.33l-2.276,3.288l30.435-5.319l-4.149,5.752L42.55,45.441l8.569,17.613l10.999-9.961l-9.568,18.68
	L40.552,59.9l-1.669,11.873h-20L34.121,59.85l-11.405-0.908c-1.352-0.17-1.988-0.156-3-1.168c-1.518-1.348,4.698-7.377,5.204-8.895
	l-7.942,1.943l-6.414,2.543L3.386,51.93l24.048-10.143l5.023-7.264L3.386,43.674l4.51-9.251l25.99-3.523l-1.788-5.708l-19.215,3.416
	l1.333-5.5l16.267-1.685l-0.855-2.982L12.955,18.85l-3.078-3.528l13.745-2.305c-1.182-2.19-1.678-5.482-0.667-6.833
	c1.518-2.19,1.525-2.835,4.901-1.657c3.244,1.303-0.8,3.533,0.432,3.657c0.296,0.029,3.197,3.729,3.624,2.765L34.253,11.732z
	 M35.698,54.111l3.289-4.807l-9.614,0.76l-2.024,3.541L35.698,54.111z"/>
<path fill="#928A6D" d="M34.253,11.732l7.372-7.629l8.959-1.142L39.802,12.74l15.13-5.325l0.637,4.532l-19.06,6.604l1.041,2.39
	l25.502-6.037l-0.166,4.829L38.02,24.294l1.436,6.46l25.666-5.237l-2.333,5.333l-12,3.5l-14.078,4.33l-2.276,3.288l30.435-5.319
	l-4.149,5.752L42.55,45.441l8.569,17.613l10.999-9.961l-9.568,18.68L40.552,59.9l-1.669,11.873h-20L34.121,59.85l-11.405-0.908
	c-1.352-0.17-1.988-0.156-3-1.168c-1.518-1.348,4.698-7.377,5.204-8.895l-7.942,1.943l-6.414,2.543L3.386,51.93l24.048-10.143
	l5.023-7.264L3.386,43.674l4.51-9.251l25.99-3.523l-1.788-5.708l-19.215,3.416l1.333-5.5l16.267-1.685l-0.855-2.982L12.955,18.85
	l-3.078-3.528l13.745-2.305c-1.182-2.19-1.678-5.482-0.667-6.833c1.518-2.19,1.525-2.835,4.901-1.657
	c3.244,1.303-0.8,3.533,0.432,3.657c0.296,0.029,3.197,3.729,3.624,2.765L34.253,11.732z M35.698,54.111l3.289-4.807l-9.614,0.76
	l-2.024,3.541L35.698,54.111z"/>
<rect id="_x3C_スライス_x3E__1_" x="3.753" fill="none" width="62" height="72"/>
</svg>
