<?xml version="1.0" encoding="utf-8"?>
<!-- Generator: Adobe Illustrator 15.0.0, SVG Export Plug-In  -->
<!DOCTYPE svg PUBLIC "-//W3C//DTD SVG 1.1//EN" "http://www.w3.org/Graphics/SVG/1.1/DTD/svg11.dtd" [
	<!ENTITY ns_flows "http://ns.adobe.com/Flows/1.0/">
]>
<svg version="1.1"
	 xmlns="http://www.w3.org/2000/svg" xmlns:xlink="http://www.w3.org/1999/xlink" xmlns:a="http://ns.adobe.com/AdobeSVGViewerExtensions/3.0/"
	 x="0px" y="0px" width="60px" height="85px" viewBox="-0.666 -0.667 60 85" enable-background="new -0.666 -0.667 60 85"
	 xml:space="preserve">
<defs>
</defs>
<path fill="#ECF0F2" stroke="#928A6D" stroke-width="2" stroke-linecap="round" d="M54.712,42.789C56.808,38.82,58,34.3,58,29.5
	c0-5.042-1.314-9.774-3.611-13.883c1.162-0.947,1.919-2.372,1.919-3.988c0-2.854-2.313-5.167-5.167-5.167
	c-1.264,0-2.406,0.472-3.305,1.226C42.88,3.517,36.485,1,29.5,1c-7.026,0-13.455,2.548-18.424,6.764
	c-0.91-0.8-2.089-1.302-3.396-1.302c-2.854,0-5.167,2.313-5.167,5.167c0,1.673,0.808,3.144,2.041,4.088C2.292,19.803,1,24.5,1,29.5
	c0,4.8,1.192,9.32,3.288,13.289c-1.029,0.944-1.685,2.288-1.685,3.795c0,2.854,2.313,5.167,5.166,5.167
	c1.068,0,2.061-0.325,2.885-0.88C15.678,55.305,22.272,58,29.5,58s13.822-2.695,18.846-7.129c0.824,0.555,1.816,0.88,2.885,0.88
	c2.854,0,5.166-2.313,5.166-5.167C56.396,45.078,55.74,43.733,54.712,42.789z"/>
<ellipse fill="#ECF0F2" stroke="#928A6D" stroke-width="1.8904" stroke-linecap="round" cx="29.5" cy="28.032" rx="10.667" ry="12.301"/>
<ellipse fill="#ECF0F2" stroke="#928A6D" stroke-width="2" stroke-linecap="round" cx="41.961" cy="21.88" rx="4.013" ry="1.5"/>
<ellipse fill="#ECF0F2" stroke="#928A6D" stroke-width="2" stroke-linecap="round" cx="16.86" cy="21.88" rx="4.013" ry="1.5"/>
<line fill="#ECF0F2" stroke="#928A6D" stroke-width="4" stroke-linecap="round" stroke-linejoin="round" stroke-miterlimit="7" x1="23.71" y1="55.303" x2="8.906" y2="67.12"/>
<line fill="#ECF0F2" stroke="#928A6D" stroke-width="4" stroke-linecap="round" stroke-linejoin="round" stroke-miterlimit="7" x1="8.906" y1="67.12" x2="41.992" y2="81.551"/>
<line fill="#ECF0F2" stroke="#928A6D" stroke-width="4" stroke-linecap="round" stroke-linejoin="round" stroke-miterlimit="7" x1="43.492" y1="52.55" x2="18.033" y2="81.551"/>
<path fill="#ECF0F2" stroke="#928A6D" stroke-width="1.4492" stroke-linecap="round" d="M21.341,18.49
	c-2.394-0.921-3.587-3.607-2.667-6c0.736-1.915,2.886-2.87,4.8-2.133c1.532,0.589,2.296,2.309,1.707,3.84
	c-0.471,1.226-1.847,1.836-3.072,1.365c-0.98-0.377-1.469-1.478-1.092-2.458c0.302-0.784,1.182-1.176,1.966-0.874"/>
<path fill="#ECF0F2" stroke="#928A6D" stroke-width="1.4492" stroke-linecap="round" d="M37.404,18.49
	c2.394-0.921,3.587-3.607,2.667-6c-0.736-1.915-2.886-2.87-4.8-2.133c-1.532,0.589-2.296,2.309-1.707,3.84
	c0.471,1.226,1.847,1.836,3.072,1.365c0.98-0.377,1.469-1.478,1.092-2.458c-0.302-0.784-1.182-1.176-1.966-0.874"/>
<path fill="none" stroke="#928A6D" stroke-width="1.8904" stroke-linecap="round" d="M32.8,32.335c0,1.104-0.896,2-2,2
	c-0.884,0-1.6-0.716-1.6-1.6c0-0.707,0.573-1.28,1.28-1.28"/>
<path fill="none" stroke="#928A6D" stroke-width="1.8904" stroke-linecap="round" d="M26.2,32.335c0,1.104,0.896,2,2,2
	c0.884,0,1.6-0.716,1.6-1.6c0-0.707-0.573-1.28-1.28-1.28"/>
<circle fill="none" stroke="#928A6D" stroke-width="1.8904" stroke-linecap="round" cx="24.591" cy="23.38" r="0.947"/>
<circle fill="none" stroke="#928A6D" stroke-width="1.8904" stroke-linecap="round" cx="33.809" cy="23.38" r="0.947"/>
</svg>
